<?xml version="1.0" encoding="utf-8"?>
<!-- Generator: Adobe Illustrator 16.0.0, SVG Export Plug-In . SVG Version: 6.00 Build 0)  -->
<!DOCTYPE svg PUBLIC "-//W3C//DTD SVG 1.0//EN" "http://www.w3.org/TR/2001/REC-SVG-20010904/DTD/svg10.dtd">
<svg version="1.0" id="Capa_1" xmlns="http://www.w3.org/2000/svg" xmlns:xlink="http://www.w3.org/1999/xlink" x="0px" y="0px"
	 width="1600px" height="892.713px" viewBox="0 0 1600 892.713" enable-background="new 0 0 1600 892.713" xml:space="preserve">
<g>
	<g>
		<defs>
			<rect id="SVGID_1_" width="1600" height="894.534"/>
		</defs>
		<clipPath id="SVGID_2_">
			<use xlink:href="#SVGID_1_"  overflow="visible"/>
		</clipPath>
		
			<linearGradient id="SVGID_3_" gradientUnits="userSpaceOnUse" x1="2547.5508" y1="-2160.6533" x2="2772.8457" y2="-1927.5898" gradientTransform="matrix(0.9632 0.2687 -0.2687 0.9632 -685.3395 1537.9277)">
			<stop  offset="0" style="stop-color:#F7FAFE"/>
			<stop  offset="1" style="stop-color:#E8F2FB"/>
		</linearGradient>
		<path clip-path="url(#SVGID_2_)" fill="url(#SVGID_3_)" d="M488.908,146.6C705.512,713.231,1572.08,908.247,2424.459,582.233
			c852.254-325.929,1367.699-1049.522,1151.027-1616.121c-216.637-566.57-1083.176-761.613-1935.549-435.631
			C787.559-1143.504,272.238-419.935,488.908,146.6z"/>
		<g clip-path="url(#SVGID_2_)">
			<defs>
				<path id="SVGID_4_" d="M-446.42,212.94c231.625,560.656,1103.083,732.51,1946.468,383.898
					c843.267-348.521,1339.247-1085.597,1107.56-1646.219c-231.66-560.595-1103.088-732.48-1946.475-383.899
					C-182.256-1084.665-678.111-347.623-446.42,212.94z"/>
			</defs>
			<clipPath id="SVGID_5_">
				<use xlink:href="#SVGID_4_"  overflow="visible"/>
			</clipPath>
			<linearGradient id="SVGID_6_" gradientUnits="userSpaceOnUse" x1="-503.396" y1="-420.8809" x2="2664.5732" y2="-420.8809">
				<stop  offset="0" style="stop-color:#227FFA"/>
				<stop  offset="1" style="stop-color:#0060FA"/>
			</linearGradient>
			<path clip-path="url(#SVGID_5_)" fill="url(#SVGID_6_)" d="M-446.42,210.266c231.625,560.656,1103.083,732.51,1946.468,383.898
				c843.267-348.521,1339.247-1085.596,1107.56-1646.218c-231.66-560.595-1103.088-732.48-1946.475-383.899
				C-182.256-1087.339-678.111-350.298-446.42,210.266z"/>
			<linearGradient id="SVGID_7_" gradientUnits="userSpaceOnUse" x1="-41.1152" y1="87.4385" x2="642.9531" y2="-368.6076">
				<stop  offset="0" style="stop-color:#FFFFFF"/>
				<stop  offset="0.5873" style="stop-color:#0088E5;stop-opacity:0"/>
			</linearGradient>
			<path opacity="0.1" clip-path="url(#SVGID_5_)" fill="url(#SVGID_7_)" d="M-171.355,57.073
				c68.237,166.951,327.141,219.018,578.279,116.314C658.027,70.711,806.312-147.874,738.055-314.815
				c-68.248-166.93-327.141-219.01-578.282-116.316C-91.365-328.427-239.613-109.847-171.355,57.073z"/>
			<linearGradient id="SVGID_8_" gradientUnits="userSpaceOnUse" x1="834.8154" y1="621.0234" x2="834.8154" y2="919.3332">
				<stop  offset="0.0036" style="stop-color:#000000;stop-opacity:0"/>
				<stop  offset="1" style="stop-color:#00043E"/>
			</linearGradient>
			
				<rect x="-7.393" y="619.231" opacity="0.2" clip-path="url(#SVGID_5_)" fill="url(#SVGID_8_)" width="1684.416" height="297.533"/>
			<use xlink:href="#SVGID_4_"  overflow="visible" fill="none" stroke="#FFFFFF" stroke-miterlimit="10"/>
		</g>
		<g clip-path="url(#SVGID_2_)">
			<defs>
				<path id="SVGID_9_" d="M-446.42,212.94c231.625,560.656,1103.083,732.51,1946.468,383.898
					c843.267-348.521,1339.247-1085.597,1107.56-1646.219c-231.66-560.595-1103.088-732.48-1946.475-383.899
					C-182.256-1084.665-678.111-347.623-446.42,212.94z"/>
			</defs>
			<clipPath id="SVGID_10_">
				<use xlink:href="#SVGID_9_"  overflow="visible"/>
			</clipPath>
			<linearGradient id="SVGID_11_" gradientUnits="userSpaceOnUse" x1="348.3623" y1="464.8955" x2="1606.8586" y2="-374.1031">
				<stop  offset="0" style="stop-color:#FFFFFF"/>
				<stop  offset="0.5873" style="stop-color:#0088E5;stop-opacity:0"/>
			</linearGradient>
			<path opacity="0.04" clip-path="url(#SVGID_10_)" fill="url(#SVGID_11_)" d="M108.754,409.028
				C234.295,716.177,710.602,811.964,1172.63,623.017c461.96-188.898,734.763-591.035,609.188-898.156
				c-125.555-307.109-601.848-402.918-1063.877-213.987C255.916-300.183-16.818,101.941,108.754,409.028z"/>
			<linearGradient id="SVGID_12_" gradientUnits="userSpaceOnUse" x1="834.8154" y1="629.9697" x2="834.8154" y2="919.256">
				<stop  offset="0.0036" style="stop-color:#000000;stop-opacity:0"/>
				<stop  offset="1" style="stop-color:#00043E"/>
			</linearGradient>
			
				<rect x="-7.393" y="628.231" opacity="0.15" clip-path="url(#SVGID_10_)" fill="url(#SVGID_12_)" width="1684.416" height="288.533"/>
			<use xlink:href="#SVGID_9_"  overflow="visible" fill="none" stroke="#FFFFFF" stroke-miterlimit="10"/>
		</g>
	</g>
</g>
</svg>
